<svg width="512" height="512" viewBox="0 0 512 512" fill="none" xmlns="http://www.w3.org/2000/svg">
  <rect width="512" height="512" rx="120" fill="white"/>
  <path d="M120 200C120 167.6 146.6 141 179 141H388C396.837 141 404 148.163 404 157C404 165.837 396.837 173 388 173H195C186.163 173 179 180.163 179 189C179 197.837 186.163 205 195 205H336C344.837 205 352 212.163 352 221C352 229.837 344.837 237 336 237H212C178.862 237 152 263.862 152 297V312C152 320.837 144.837 328 136 328H120V200Z" fill="#E53935"/>
  <circle cx="186" cy="352" r="44" fill="#E53935"/>
  <circle cx="286" cy="352" r="44" fill="#E53935"/>
</svg>
